<?xml version="1.0" encoding="utf-8"?>
<!-- Svg Vector Icons : http://www.onlinewebfonts.com/icon -->
<!DOCTYPE svg PUBLIC "-//W3C//DTD SVG 1.1//EN" "http://www.w3.org/Graphics/SVG/1.1/DTD/svg11.dtd">
<svg version="1.1" xmlns="http://www.w3.org/2000/svg" xmlns:xlink="http://www.w3.org/1999/xlink" x="0px" y="0px" viewBox="0 0 1000 1000" enable-background="new 0 0 1000 1000" xml:space="preserve">
<metadata> Svg Vector Icons : http://www.onlinewebfonts.com/icon </metadata>
<g><path d="M30.2,868.6C19,935.7,64.8,990,132.1,990h735.7c67.5,0,113.1-54,101.9-121.4L867.5,255h-735L30.2,868.6z M815.3,314.6l94,564.1c5,30-11.9,50.1-41.5,50.1H132.1c-29.4,0-46.5-20.3-41.5-50.1l93.8-563L815.3,314.6z"/><path d="M377.5,500V193.9c0-67.9,54.7-122.6,122.5-122.6c67.5,0,122.5,55,122.5,122.6V500h30.6h30.6V193.9C683.7,92.3,601.3,10,500,10c-101.5,0-183.8,82-183.8,183.9V500h30.6H377.5z"/></g>
</svg>