<?xml version="1.0" encoding="utf-8"?>
<!-- Svg Vector Icons : http://www.onlinewebfonts.com/icon -->
<!DOCTYPE svg PUBLIC "-//W3C//DTD SVG 1.1//EN" "http://www.w3.org/Graphics/SVG/1.1/DTD/svg11.dtd">
<svg version="1.1" xmlns="http://www.w3.org/2000/svg" xmlns:xlink="http://www.w3.org/1999/xlink" x="0px" y="0px" viewBox="0 0 1000 1000" enable-background="new 0 0 1000 1000" xml:space="preserve">
<metadata> Svg Vector Icons : http://www.onlinewebfonts.com/icon </metadata>
<g><path d="M459.4,909.5c-241,0-437.1-201.7-437.1-449.8S218.4,10,459.4,10c241,0,437.1,201.7,437.1,449.7c0,159-123.3,324.6-192.3,372.7C631.8,882.8,547.1,909.5,459.4,909.5z M459.4,77.6c-203.7,0-369.4,171.4-369.4,382.1c0,210.7,165.7,382.1,369.4,382.1c73.9,0,145.1-22.5,206.1-65c55.4-38.6,163.3-185.5,163.3-317.2C828.8,249,663.1,77.6,459.4,77.6z"/><path d="M954.5,971.8c-28.7,26.4-72.5,23.7-98-6l-139.6-163c-25.5-29.7,78.3-125.4,103.7-95.7l139.6,163C985.6,899.9,983,945.4,954.5,971.8L954.5,971.8z"/></g>
</svg>